<svg xmlns="http://www.w3.org/2000/svg" width="1200" height="630" viewBox="0 0 1200 630" font-family="Inter, 'Segoe UI', system-ui, -apple-system, 'Helvetica Neue', Arial, sans-serif">
  <defs>
    <linearGradient id="bg" x1="0" y1="0" x2="0" y2="630" gradientUnits="userSpaceOnUse">
      <stop offset="0" stop-color="#F1EDDF"/>
      <stop offset="1" stop-color="#E6E1D0"/>
    </linearGradient>
    <linearGradient id="accentH" x1="0" y1="0" x2="1200" y2="0" gradientUnits="userSpaceOnUse">
      <stop offset="0" stop-color="#2D6CDF"/>
      <stop offset="1" stop-color="#7A2FF6"/>
    </linearGradient>
    <linearGradient id="accentV" x1="0" y1="0" x2="0" y2="630" gradientUnits="userSpaceOnUse">
      <stop offset="0" stop-color="#2D6CDF"/>
      <stop offset="1" stop-color="#7A2FF6"/>
    </linearGradient>
  </defs>

  <rect width="1200" height="630" fill="url(#bg)"/>
  <rect x="0" y="0" width="1200" height="10" fill="url(#accentH)"/>
  <rect x="0" y="0" width="12" height="630" fill="url(#accentV)"/>
  <rect x="1188" y="0" width="12" height="630" fill="url(#accentV)"/>

  <g fill="#1A1A1A" font-weight="800" font-size="72" letter-spacing="-1">
    <text x="64" y="170">Which tty Is the AHRS?</text>
    <text x="64" y="258">Hunting an Undocumented</text>
    <text x="64" y="346">Serial Device on a Jetson</text>
  </g>

  <g font-family="'DejaVu Sans Mono', 'SFMono-Regular', Consolas, monospace" font-size="22" font-weight="700" fill="#FFFFFF" text-anchor="middle">
    <rect x="64"  y="545" width="126" height="44" rx="22" fill="#3B5BDB"/>
    <text x="127" y="574">Jetson</text>
    <rect x="206" y="545" width="120" height="44" rx="22" fill="#7048E8"/>
    <text x="266" y="574">serial</text>
    <rect x="342" y="545" width="96"  height="44" rx="22" fill="#0CA678"/>
    <text x="390" y="574">AHRS</text>
    <rect x="454" y="545" width="158" height="44" rx="22" fill="#E64980"/>
    <text x="533" y="574">embedded</text>
    <rect x="628" y="545" width="168" height="44" rx="22" fill="#D6336C"/>
    <text x="712" y="574">debugging</text>
  </g>

  <text x="1136" y="588" text-anchor="end" font-size="56" font-weight="800" fill="#4263EB" font-family="'DejaVu Sans Mono', Consolas, monospace">C++</text>
</svg>
